<svg
	xmlns="http://www.w3.org/2000/svg"
	width="61"
	height="61"
	viewBox="0 0 104 61"
	fill="none"
>
	<path
		d="M93.7553 13.9762C96.1684 17.2933 97.5323 20.9732 97.5323 24.9122C97.5323 38.5951 80.9555 49.6866 60.5492 49.6866C49.8477 49.6866 40.2478 46.6287 33.4807 41.8086C39.0413 44.2964 45.9658 45.7994 53.5198 45.7994C54.0968 45.7994 54.6738 45.7994 55.2509 45.7476C44.0248 44.4 35.5265 37.8177 35.5265 29.9397C35.5265 21.0769 46.2805 13.8726 59.5 13.8726C72.772 13.8726 83.4735 21.0769 83.4735 29.9397C83.4735 32.4793 82.5817 34.8634 81.0079 37.0403C84.3653 34.0342 86.3587 30.4061 86.3587 26.5189C86.3587 15.8421 71.6179 7.23844 53.4673 7.23844C42.0838 7.23844 32.0118 10.6592 26.1365 15.7903C30.7528 7.96405 41.192 2.10735 53.887 0.552468C52.9952 0.552468 52.1558 0.500639 51.264 0.500639C23.1988 0.44881 0.484375 13.7689 0.484375 30.1988C0.484375 46.6287 23.1988 59.9488 51.264 59.9488C79.2768 59.9488 101.991 46.6287 101.991 30.1988C101.991 24.1866 98.9487 18.6409 93.7553 13.9762Z"
		fill="#003F93"
	></path>
</svg>
