<svg version="1.1" id="Layer_2_00000070099024165083156180000002706406892697338285_" xmlns="http://www.w3.org/2000/svg" xmlns:xlink="http://www.w3.org/1999/xlink" x="0px" y="0px" viewBox="0 0 39.5 39.5" style="enable-background:new 0 0 39.5 39.5;" xml:space="preserve" fill="currentColor">
<path class="st0" d="M39.5,38.9c-1-3.6-1.7-7.2-2.1-11c-0.2-1.3-0.3-2.6-0.3-3.9c0,0,0,0,0,0v-8.8c0,0,0,0,0,0
	c0.1-1.2,0.2-2.3,0.3-3.5c0.4-3.8,1.1-7.5,2.1-11.1c0.1-0.3-0.2-0.6-0.5-0.5c-3.6,1-7.2,1.7-11,2.1c-1.3,0.2-2.6,0.3-3.9,0.3
	c0,0,0,0,0,0h-8.8c0,0,0,0,0,0c-1.2-0.1-2.3-0.2-3.5-0.3C7.8,1.8,4.1,1.1,0.5,0.1C0.2,0-0.1,0.3,0,0.6c1,3.6,1.7,7.3,2.1,11.1
	c0.1,1.3,0.3,2.6,0.3,3.8c0,0,0,0,0,0v8.8c0,0,0,0,0,0c-0.1,1.2-0.2,2.4-0.3,3.6C1.7,31.7,1,35.4,0.1,39c-0.1,0.3,0.2,0.6,0.5,0.5
	c3.6-1,7.3-1.7,11-2.1c1.3-0.2,2.6-0.3,3.8-0.3c0,0,0,0,0,0h8.8c0,0,0,0,0,0c1.2,0.1,2.4,0.2,3.6,0.3c3.8,0.4,7.5,1.1,11,2.1
	C39.3,39.5,39.5,39.2,39.5,38.9z M18.3,16.8H13v2.1h4.7v2H13v3.8h-2.1v-9.8h7.4C18.3,14.8,18.3,16.8,18.3,16.8z M24.6,24.7
	c-2.9,0-5-2.2-5-5v0c0-2.8,2.1-5.1,5.1-5.1c1.8,0,2.9,0.6,3.9,1.5l-1.4,1.6c-0.8-0.7-1.5-1.1-2.5-1.1c-1.6,0-2.8,1.4-2.8,3v0
	c0,1.7,1.2,3.1,2.8,3.1c1.1,0,1.8-0.5,2.6-1.1l1.4,1.4C27.6,24.1,26.5,24.8,24.6,24.7L24.6,24.7z"></path>
</svg>