<svg xmlns="http://www.w3.org/2000/svg" width="11" height="12.104" viewBox="0 0 11 12.104">
  <g id="Group_956" data-name="Group 956" transform="translate(-494.083 -3170.383)">
    <g id="UNT_Diving_Eagle" data-name="UNT Diving Eagle" transform="translate(494.083 3170.383)">
      <path id="Path_1176" data-name="Path 1176" d="M75.024,65.824c-.091-.045-.242.046-.242.046a1.956,1.956,0,0,0-.288-.561s.515.469.53.515a.57.57,0,0,0-.151-.667c-.5-.469-1.439-1.318-1.439-1.318a3.69,3.69,0,0,1,.242,2.167l.5.091.061.091a2.172,2.172,0,0,1,.652.151s.2.137-.015.318a1.111,1.111,0,0,0,.5-.242.229.229,0,0,0,0-.323l-.011-.01-.333-.258" transform="translate(-64.436 -55.567)" fill="#007a33"/>
      <path id="Path_1177" data-name="Path 1177" d="M29.368,23.257l-7.015-6.515a.757.757,0,0,1-.2-.741l-.56,1.259a.633.633,0,0,0,.242.787c.152.136,5.576,4.53,5.576,4.53v.182l-5.364-4.153a.594.594,0,0,1-.227-.53l-.379.8c-.182.454.273.742.47.879.181.136,5.53,3.879,5.53,3.879l.045.228s-5.2-3.47-5.394-3.592a.635.635,0,0,1-.228-.484l-.378.8c-.152.334.288.561.5.7.137.091,3.045,1.818,5.439,3.243H24.306a.949.949,0,0,1-.605-.137l.424.394a.827.827,0,0,0,.53.288h1.136l.227.091L25,25.226a.9.9,0,0,1-.515-.106l.455.424a.635.635,0,0,0,.455.2c.227-.015,1.485-.227,1.485-.227l.2.091-1.318.288a.733.733,0,0,1-.515-.091l.409.409c.182.151.333.273.879.106.227-.061,1.273-.409,1.273-.409l.7.288A5.791,5.791,0,0,0,30.08,27.68a.4.4,0,0,0-.015.424.719.719,0,0,1,.712-.409c.2.015.151.288.151.273.136-.152.242-.363.106-.53-.151-.2-.56-.015-.56-.015l-.409-.711.53-.318a3.739,3.739,0,0,0-1.227-3.136" transform="translate(-21.401 -16)" fill="#007a33"/>
      <path id="Path_1178" data-name="Path 1178" d="M46.4,21.626c-.091-.091-3.333-3.743-3.333-3.743a.571.571,0,0,1-.182-.576l-.379.849c-.091.227.061.378.182.515.136.136,3.545,3.7,3.545,3.7l-.015.2-3.242-3.227c-.272-.273-.182-.47-.182-.5l-.333.788c-.061.242.182.409.333.56.182.182,3.788,3.545,4.076,3.8a4.379,4.379,0,0,1,.94,1.318c.363-1.818-1.045-3.258-1.409-3.682" transform="translate(-38.811 -17.081)" fill="#007a33"/>
    </g>
  </g>
</svg>